<svg id="visual" viewBox="0 0 1900 4600" width="1900" height="4600" xmlns="http://www.w3.org/2000/svg" xmlns:xlink="http://www.w3.org/1999/xlink" version="1.1"><g><g transform="translate(133 2833)"><path d="M109 -34.3C124 10.8 107 67.3 70.7 92.6C34.3 118 -21.4 112 -59 84C-96.7 56 -116.3 5.9 -103.4 -36.1C-90.6 -78.2 -45.3 -112.2 0.9 -112.5C47 -112.7 94 -79.3 109 -34.3Z" stroke="#ff685a" fill="none" stroke-width="15"></path></g><g transform="translate(1692 1039)"><path d="M72.7 -22.2C82.3 5.7 69.7 42.1 44.2 60.6C18.8 79 -19.5 79.3 -42.7 61.7C-65.9 44.2 -74 8.8 -64.3 -19.2C-54.7 -47.3 -27.4 -67.9 2.1 -68.6C31.6 -69.3 63.2 -50 72.7 -22.2Z" stroke="#ff685a" fill="none" stroke-width="15"></path></g><g transform="translate(928 626)"><path d="M56.1 -19.5C64.6 7.9 57.7 39 38.2 53.3C18.7 67.6 -13.4 65.2 -37.1 48.6C-60.8 32 -76 1.2 -68.4 -25C-60.8 -51.1 -30.4 -72.5 -3.3 -71.5C23.8 -70.4 47.6 -46.8 56.1 -19.5Z" stroke="#ff685a" fill="none" stroke-width="15"></path></g><g transform="translate(757 3686)"><path d="M80.3 -25.7C91.3 7.9 78.7 49.5 52.1 67.9C25.5 86.4 -15.2 81.7 -43.2 61C-71.1 40.4 -86.3 3.7 -76.9 -27.5C-67.6 -58.7 -33.8 -84.5 0.4 -84.6C34.6 -84.8 69.3 -59.3 80.3 -25.7Z" stroke="#ff685a" fill="none" stroke-width="15"></path></g><g transform="translate(445 3254)"><path d="M54.3 -18.8C60.9 2.5 50.2 28.4 31.1 42C12.1 55.7 -15.2 57.1 -32.5 44.6C-49.7 32.1 -56.8 5.7 -49.7 -16.4C-42.6 -38.5 -21.3 -56.3 1.3 -56.7C23.9 -57.1 47.8 -40.2 54.3 -18.8Z" stroke="#ff685a" fill="none" stroke-width="15"></path></g><g transform="translate(1562 2702)"><path d="M80.5 -23.4C92.6 11.1 82.6 55.6 56 74.2C29.4 92.9 -13.9 85.8 -42 63.9C-70.2 42.1 -83.2 5.4 -73.7 -25.6C-64.1 -56.6 -32.1 -81.9 1.1 -82.3C34.2 -82.6 68.4 -58 80.5 -23.4Z" stroke="#ff685a" fill="none" stroke-width="15"></path></g><g transform="translate(634 2339)"><path d="M28.4 -9.6C32.4 3.3 28.4 18.5 18.2 26.1C8 33.8 -8.4 34 -19.4 26.1C-30.4 18.2 -36 2.3 -31.9 -10.6C-27.8 -23.6 -13.9 -33.7 -0.9 -33.4C12.1 -33.1 24.3 -22.5 28.4 -9.6Z" stroke="#ff685a" fill="none" stroke-width="15"></path></g><g transform="translate(1818 3163)"><path d="M102 -34.1C115.8 9.5 99.5 61.9 65.9 85C32.3 108 -18.5 101.7 -51.9 76.2C-85.4 50.8 -101.6 6.3 -90.1 -34.2C-78.5 -74.6 -39.3 -110.9 2.4 -111.7C44.1 -112.5 88.1 -77.7 102 -34.1Z" stroke="#ff685a" fill="none" stroke-width="15"></path></g><g transform="translate(43 916)"><path d="M91.4 -34C102.2 3.7 83.7 46.7 51.2 70.1C18.8 93.6 -27.5 97.6 -56.3 76.8C-85.1 56 -96.4 10.5 -84.1 -29.2C-71.8 -68.9 -35.9 -102.8 2.2 -103.5C40.3 -104.2 80.5 -71.7 91.4 -34Z" stroke="#ff685a" fill="none" stroke-width="15"></path></g><g transform="translate(1734 4376)"><path d="M71.1 -20.5C80.9 7.1 69.9 44.1 46 60.9C22.2 77.6 -14.6 74.2 -40.2 55.5C-65.7 36.9 -80.1 3.1 -71.6 -22.8C-63 -48.7 -31.5 -66.7 -0.4 -66.6C30.6 -66.4 61.2 -48.1 71.1 -20.5Z" stroke="#ff685a" fill="none" stroke-width="15"></path></g><g transform="translate(1163 2748)"><path d="M69.4 -25C79.4 8.4 69.8 45.6 45.3 63.8C20.8 82 -18.7 81 -46.8 61.4C-74.8 41.7 -91.5 3.3 -81.7 -29.6C-72 -62.4 -36 -89.8 -3.2 -88.7C29.7 -87.7 59.3 -58.3 69.4 -25Z" stroke="#ff685a" fill="none" stroke-width="15"></path></g><g transform="translate(836 1441)"><path d="M58.6 -18.8C67.2 7.4 59.4 39.2 39.2 54C18.9 68.7 -13.8 66.3 -34 50.7C-54.3 35.1 -62 6.2 -54.3 -18.8C-46.5 -43.9 -23.3 -65.1 0.9 -65.3C25 -65.6 50 -45 58.6 -18.8Z" stroke="#ff685a" fill="none" stroke-width="15"></path></g><g transform="translate(1419 2101)"><path d="M34.4 -11.4C38.4 1.2 31.3 17.3 19.2 25.9C7.2 34.5 -9.8 35.7 -20 28.1C-30.2 20.6 -33.5 4.3 -29.1 -9C-24.6 -22.2 -12.3 -32.4 1.4 -32.9C15.2 -33.3 30.4 -24.1 34.4 -11.4Z" stroke="#ff685a" fill="none" stroke-width="15"></path></g><g transform="translate(1881 2048)"><path d="M77.3 -25C85.7 0.8 68.1 35.2 40.4 55.3C12.7 75.4 -25.2 81.1 -49.2 64.5C-73.1 47.9 -83.1 8.8 -72.6 -19.9C-62 -48.5 -31 -66.8 1.7 -67.3C34.4 -67.9 68.9 -50.7 77.3 -25Z" stroke="#ff685a" fill="none" stroke-width="15"></path></g><g transform="translate(1622 3697)"><path d="M83.7 -28.9C94.8 6.9 80.7 49.3 51.9 69.7C23.2 90.1 -20.1 88.7 -49.9 67.3C-79.7 46 -96.1 4.7 -85.5 -30.4C-74.9 -65.4 -37.5 -94.3 -0.6 -94.2C36.3 -94 72.6 -64.7 83.7 -28.9Z" stroke="#ff685a" fill="none" stroke-width="15"></path></g><g transform="translate(530 824)"><path d="M15.1 -5.5C17.1 1.2 14.6 8.8 9.4 12.4C4.3 16 -3.3 15.5 -8.8 11.7C-14.3 7.8 -17.6 0.5 -15.8 -6C-14 -12.5 -7 -18.2 -0.2 -18.2C6.6 -18.1 13.1 -12.3 15.1 -5.5Z" stroke="#ff685a" fill="none" stroke-width="15"></path></g><g transform="translate(742 222)"><path d="M19.5 -6.8C21.9 1.2 18.2 10.6 11.7 15.1C5.2 19.6 -4.1 19 -10.5 14.4C-16.8 9.8 -20.2 1.1 -18 -6.6C-15.7 -14.3 -7.9 -21 0.3 -21.1C8.5 -21.2 17 -14.7 19.5 -6.8Z" stroke="#ff685a" fill="none" stroke-width="15"></path></g><g transform="translate(967 3172)"><path d="M40.7 -12.9C45.2 0.6 36 18.8 22 28.6C7.9 38.4 -11 39.9 -24.5 30.8C-38 21.7 -46 2.1 -41 -12.2C-36 -26.4 -18 -35.3 0.1 -35.3C18.1 -35.3 36.2 -26.5 40.7 -12.9Z" stroke="#ff685a" fill="none" stroke-width="15"></path></g><g transform="translate(195 1555)"><path d="M18.8 -6.2C21.4 2 18.6 11.8 11.9 16.7C5.3 21.6 -5.2 21.5 -11.7 16.7C-18.2 11.8 -20.8 2.1 -18.2 -6.1C-15.6 -14.2 -7.8 -20.8 0.1 -20.9C8.1 -20.9 16.2 -14.4 18.8 -6.2Z" stroke="#ff685a" fill="none" stroke-width="15"></path></g><g transform="translate(423 145)"><path d="M81.2 -22.1C94.2 13.5 86 60.3 55.8 83.9C25.6 107.5 -26.6 108 -57.3 84.4C-87.9 60.8 -97 13.2 -83.9 -22.7C-70.8 -58.6 -35.4 -82.7 -0.6 -82.5C34.1 -82.3 68.2 -57.8 81.2 -22.1Z" stroke="#ff685a" fill="none" stroke-width="15"></path></g><g transform="translate(1255 3611)"><path d="M79.6 -28C89 3.2 72.8 40.6 47.1 57.6C21.4 74.5 -13.8 71.1 -40.6 52.4C-67.3 33.8 -85.5 0.1 -77.3 -29.4C-69.1 -58.9 -34.5 -84.2 0.3 -84.3C35.1 -84.3 70.1 -59.3 79.6 -28Z" stroke="#ff685a" fill="none" stroke-width="15"></path></g><g transform="translate(883 4219)"><path d="M35.7 -11.7C39.6 0.3 31.4 16.1 19.3 24.4C7.2 32.7 -8.8 33.4 -20.4 25.6C-32 17.7 -39.3 1.3 -35.1 -11.1C-31 -23.4 -15.5 -31.7 0.2 -31.8C15.9 -31.9 31.8 -23.7 35.7 -11.7Z" stroke="#ff685a" fill="none" stroke-width="15"></path></g><g transform="translate(1595 1643)"><path d="M64.8 -21.2C74.1 7.7 65 42.3 41.7 59.9C18.4 77.4 -19.2 77.8 -40.4 61.2C-61.5 44.5 -66.2 10.7 -56.7 -18.3C-47.3 -47.3 -23.6 -71.6 2 -72.3C27.7 -73 55.4 -50 64.8 -21.2Z" stroke="#ff685a" fill="none" stroke-width="15"></path></g></g></svg>