<svg id="visual" viewBox="0 0 1900 4600" width="1900" height="4600" xmlns="http://www.w3.org/2000/svg" xmlns:xlink="http://www.w3.org/1999/xlink" version="1.1"><g fill="none" stroke="#A7233A" stroke-width="2"><circle r="106" cx="1841" cy="1576"></circle><circle r="5" cx="1052" cy="3921"></circle><circle r="53" cx="173" cy="1843"></circle><circle r="26" cx="876" cy="2020"></circle><circle r="44" cx="857" cy="3308"></circle><circle r="9" cx="557" cy="2249"></circle><circle r="83" cx="53" cy="3220"></circle><circle r="5" cx="1229" cy="846"></circle><circle r="78" cx="721" cy="3490"></circle><circle r="84" cx="607" cy="2619"></circle><circle r="96" cx="1035" cy="2463"></circle><circle r="75" cx="653" cy="1510"></circle><circle r="22" cx="1600" cy="60"></circle><circle r="70" cx="571" cy="749"></circle><circle r="58" cx="1717" cy="2708"></circle><circle r="4" cx="1469" cy="3726"></circle><circle r="67" cx="1694" cy="1852"></circle><circle r="88" cx="1696" cy="4179"></circle><circle r="83" cx="1015" cy="2188"></circle><circle r="95" cx="1406" cy="2091"></circle><circle r="81" cx="88" cy="143"></circle><circle r="44" cx="965" cy="36"></circle><circle r="80" cx="950" cy="4542"></circle><circle r="33" cx="215" cy="852"></circle><circle r="42" cx="1717" cy="3469"></circle><circle r="31" cx="1288" cy="2880"></circle></g></svg>