<svg id="visual" viewBox="0 0 1600 4600" width="1600" height="4600" xmlns="http://www.w3.org/2000/svg" xmlns:xlink="http://www.w3.org/1999/xlink" version="1.1"><rect x="0" y="0" width="1600" height="4600" fill="#001220"></rect><g fill="none" stroke="#A7233A" stroke-width="2"><circle r="126" cx="1573" cy="2635"></circle><circle r="6" cx="1172" cy="2002"></circle><circle r="62" cx="755" cy="1767"></circle><circle r="9" cx="91" cy="2302"></circle><circle r="6" cx="474" cy="4175"></circle><circle r="73" cx="670" cy="523"></circle><circle r="91" cx="388" cy="4450"></circle><circle r="75" cx="248" cy="2989"></circle><circle r="87" cx="868" cy="2201"></circle><circle r="9" cx="1344" cy="1256"></circle><circle r="109" cx="1551" cy="830"></circle><circle r="105" cx="1488" cy="3334"></circle><circle r="92" cx="1522" cy="288"></circle><circle r="22" cx="76" cy="4583"></circle><circle r="105" cx="1257" cy="2330"></circle><circle r="10" cx="596" cy="921"></circle><circle r="33" cx="1008" cy="4042"></circle><circle r="13" cx="1161" cy="550"></circle><circle r="25" cx="105" cy="1096"></circle><circle r="116" cx="697" cy="2936"></circle><circle r="36" cx="143" cy="1902"></circle><circle r="107" cx="457" cy="2182"></circle><circle r="74" cx="1495" cy="2015"></circle><circle r="18" cx="800" cy="3585"></circle><circle r="27" cx="1565" cy="3805"></circle><circle r="111" cx="760" cy="4195"></circle><circle r="103" cx="661" cy="142"></circle><circle r="65" cx="1393" cy="4145"></circle><circle r="5" cx="1118" cy="23"></circle><circle r="94" cx="208" cy="456"></circle><circle r="44" cx="1249" cy="250"></circle><circle r="31" cx="1228" cy="2596"></circle><circle r="11" cx="1585" cy="1140"></circle><circle r="122" cx="1151" cy="2861"></circle><circle r="71" cx="742" cy="1354"></circle><circle r="80" cx="1121" cy="946"></circle><circle r="76" cx="492" cy="3499"></circle><circle r="110" cx="1012" cy="4541"></circle><circle r="79" cx="387" cy="2607"></circle><circle r="16" cx="1407" cy="16"></circle><circle r="53" cx="879" cy="791"></circle><circle r="101" cx="1036" cy="3113"></circle><circle r="114" cx="1559" cy="4484"></circle><circle r="96" cx="132" cy="3220"></circle><circle r="74" cx="1288" cy="1691"></circle><circle r="73" cx="464" cy="1374"></circle><circle r="13" cx="16" cy="3726"></circle><circle r="36" cx="14" cy="2744"></circle><circle r="55" cx="210" cy="3509"></circle></g></svg>