<svg id="visual" viewBox="0 0 1000 500" width="1000" height="500" xmlns="http://www.w3.org/2000/svg" xmlns:xlink="http://www.w3.org/1999/xlink" version="1.1"><g transform="translate(524.1860812249504 256.52925726146816)"><path d="M130.1 -148.9C162.9 -127.5 179.9 -81.1 173.7 -41.7C167.4 -2.3 137.8 30.1 112.3 55.9C86.8 81.8 65.3 101 37.2 118.2C9.1 135.3 -25.5 150.4 -68.9 151.1C-112.3 151.9 -164.4 138.5 -194.6 103.8C-224.8 69.2 -233 13.3 -210.5 -23.7C-188.1 -60.8 -134.8 -79 -94.6 -99.1C-54.4 -119.2 -27.2 -141.1 10.7 -153.9C48.6 -166.6 97.3 -170.3 130.1 -148.9" fill="#d4cbc9"></path></g></svg>