<svg xmlns="http://www.w3.org/2000/svg" version="1.1" xmlns:xlink="http://www.w3.org/1999/xlink" xmlns:svgjs="http://svgjs.dev/svgjs" viewBox="0 0 800 800"><defs><linearGradient x1="50%" y1="0%" x2="50%" y2="100%" id="ccchaos-grad"><stop stop-color="hsl(30, 100%, 50%)" stop-opacity="1" offset="0%"></stop><stop stop-color="hsl(30, 100%, 70%)" stop-opacity="1" offset="100%"></stop></linearGradient></defs><g stroke-width="2" stroke="url(#ccchaos-grad)" fill="none" stroke-linecap="round"><path d="M389.22 128.03C398.84 128.22 408.51 127.94 418.2 127.25 427.91 125.76 437.67 124.16 447.46 122.65 457.3 120.92 467.21 119.72 477.17 119.22 487.2 119.13 497.31 120.07 507.47 122.1 517.72 124.89 528.01 128.85 538.33 133.93 548.68 139.72 559.01 146.49 569.25 154.07 579.42 162.08 589.4 170.66 599.07 179.62 608.52 188.67 617.51 197.87 625.89 207.13 633.84 216.18 641.01 225.14 647.28 233.99 652.92 242.48 657.52 250.83 661 259.05 663.8 266.92 665.49 274.71 666.08 282.48 666.16 289.97 665.34 297.52 663.74 305.19 662.08 312.66 660.02 320.33 657.77 328.25 656.06 336.05 654.59 344.16 653.55 352.61 653.59 361 654.35 369.76 655.9 378.92 658.7 388.05 662.27 397.6 666.47 407.59 671.57 417.57 676.77 427.77 681.79 438.15 686.9 448.54 691.29 459.12 694.72 469.83 697.52 480.55 698.99 491.37 699.02 502.24 698.07 513.05 695.6 523.83 691.69 534.46 686.81 544.91 680.67 555.08 673.43 564.81 665.56 574.17 656.89 582.9 647.64 590.84 638.16 598.18 628.38 604.54 618.45 609.79 608.65 614.31 598.89 617.64 589.26 619.77 579.95 621.29 570.83 621.76 561.92 621.34 553.37 620.81 545 619.83 536.78 618.7 528.87 618.29 521.02 618.36 513.2 619.23 505.59 621.62 497.91 625.28 490.13 630.38 482.46 637.26 474.62 645.51 466.57 654.93 458.57 665.44 450.31 676.37 441.8 687.16 433.3 697.54 424.52 706.64 415.47 713.85 406.41 719.09 397.08 721.6 387.5 721.11 377.92 718.14 368.33 712.45 358.76 704.53 349.21 695.28 339.71 684.92 330.31 674.11 320.95 663.72 311.71 653.96 302.64 645.26 293.64 638.21 284.84 632.68 276.29 628.68 267.83 626.54 259.65 625.66 251.79 625.77 244.05 627.05 236.65 628.66 229.63 630.22 222.72 632 216.19 633.12 210.08 633.31 204.04 632.98 198.4 631.39 193.17 628.5 187.95 624.77 183.1 619.71 178.6 613.45 174.04 606.4 169.78 598.32 165.8 589.41 161.68 579.94 157.79 569.87 154.13 559.38 150.25 548.61 146.55 537.6 143.05 526.49 139.32 515.29 135.78 504.11 132.46 493.02 128.95 481.94 125.71 471 122.78 460.25 119.75 449.53 117.12 439 114.93 428.7 112.79 418.41 111.19 408.33 110.2 398.48 109.38 388.63 109.26 379.23 109.83 370.26 110.64 361.27 112.16 352.71 114.36 344.55 116.79 336.36 119.86 328.55 123.52 321.12 127.35 313.6 131.7 306.4 136.52 299.5 141.39 292.43 146.65 285.58 152.24 278.9 157.77 271.95 163.56 265.06 169.58 258.18 175.44 250.92 181.49 243.57 187.69 236.09 193.69 228.17 199.85 220.07 206.14 211.81 212.24 203.17 218.5 194.42 224.92 185.65 231.18 176.73 237.65 167.98 244.31 159.55 250.86 151.34 257.66 143.72 264.69 136.89 271.66 130.66 278.9 125.44 286.42 121.37 293.89 118.11 301.66 116.04 309.7 115.18 317.72 114.96 326.03 115.72 334.61 117.32 343.18 119.05 352.02 121.18 361.13 123.51 370.22 125.28 379.59 126.84 389.21 128.03" stroke-dasharray="0 3" transform="rotate(0, 400, 400)" opacity="0.55"></path><path d="M392.79 139.43C402.12 139.64 411.52 139.41 420.96 138.78 430.42 137.38 439.94 135.85 449.51 134.38 459.13 132.65 468.81 131.37 478.54 130.7 488.32 130.36 498.16 130.94 508.03 132.54 517.95 134.8 527.88 138.17 537.78 142.62 547.68 147.77 557.49 153.89 567.14 160.84 576.69 168.29 585.98 176.36 594.89 184.91 603.55 193.63 611.69 202.62 619.21 211.74 626.29 220.77 632.6 229.8 638.02 238.77 642.87 247.48 646.75 256.09 649.6 264.58 651.86 272.77 653.13 280.88 653.44 288.95 653.35 296.74 652.5 304.56 651 312.43 649.53 320.11 647.74 327.93 645.83 335.93 644.48 343.81 643.37 351.92 642.66 360.31 642.96 368.64 643.9 377.28 645.55 386.26 648.33 395.21 651.78 404.54 655.77 414.23 660.59 423.93 665.47 433.78 670.18 443.76 675.02 453.74 679.19 463.84 682.51 474.01 685.3 484.15 686.89 494.32 687.19 504.44 686.61 514.46 684.63 524.34 681.33 533.97 677.13 543.38 671.71 552.41 665.23 560.92 658.11 569.04 650.17 576.47 641.59 583.09 632.72 589.16 623.47 594.29 613.98 598.37 604.52 601.87 595.01 604.33 585.54 605.77 576.3 606.81 567.17 607.05 558.21 606.63 549.54 606.33 541.02 605.82 532.65 605.36 524.54 605.74 516.52 606.7 508.56 608.53 500.79 611.81 493.01 616.3 485.17 622.07 477.45 629.41 469.62 637.91 461.64 647.33 453.72 657.62 445.61 668.13 437.31 678.35 429.02 688.09 420.51 696.54 411.79 703.16 403.06 707.96 394.11 710.22 384.96 709.71 375.8 706.92 366.66 701.63 357.58 694.24 348.52 685.58 339.53 675.8 330.65 665.49 321.81 655.44 313.11 645.82 304.6 637.05 296.14 629.69 287.89 623.64 279.9 618.95 271.98 615.96 264.35 614.19 257.03 613.42 249.8 613.86 242.9 614.77 236.36 615.83 226.87 617.82 209.81 618.39 202.23 615.93 197.3 613.26 192.68 609.4 188.39 604.42 184.01 598.73 179.9 592.03 176.04 584.45 172.02 576.33 168.21 567.52 164.6 558.18 160.78 548.51 157.12 538.5 153.65 528.26 149.95 517.88 146.44 507.41 143.14 496.94 139.65 486.42 136.43 475.97 133.51 465.65 130.5 455.34 127.87 445.17 125.68 435.19 123.54 425.22 121.92 415.43 120.89 405.86 120.04 396.28 119.86 387.13 120.36 378.38 121.1 369.62 122.53 361.24 124.61 353.24 126.93 345.18 129.87 337.47 133.4 330.07 137.1 322.57 141.32 315.33 146 308.31 150.75 301.11 155.89 294.06 161.37 287.11 166.8 279.89 172.51 272.68 178.44 265.43 184.25 257.84 190.24 250.14 196.39 242.31 202.36 234.11 208.48 225.77 214.73 217.32 220.8 208.6 227.01 199.86 233.37 191.18 239.57 182.47 245.95 174.02 252.5 165.98 258.94 158.25 265.58 151.17 272.45 144.91 279.23 139.28 286.26 134.65 293.54 131.14 300.77 128.38 308.26 126.75 316.02 126.24 323.75 126.29 331.76 127.23 340.03 128.92 348.28 130.67 356.81 132.78 365.61 135.05 374.39 136.77 383.45 138.27 392.78 139.43" stroke-dasharray="7 3" transform="rotate(4.04, 400, 400)" opacity="0.61"></path><path d="M396.77 150.84C405.82 151.07 414.93 150.88 424.1 150.31 433.29 149 442.55 147.56 451.85 146.13 461.18 144.42 470.58 143.09 480.01 142.29 489.47 141.73 498.97 142.01 508.47 143.19 517.98 144.97 527.46 147.78 536.86 151.6 546.22 156.1 555.44 161.54 564.44 167.84 573.3 174.66 581.84 182.15 589.97 190.18 597.82 198.47 605.13 207.1 611.8 215.97 618.05 224.83 623.54 233.79 628.19 242.75 632.33 251.55 635.57 260.29 637.87 268.96 639.69 277.39 640.63 285.75 640.73 294.05 640.55 302.12 639.72 310.18 638.36 318.25 637.1 326.15 635.6 334.13 634.03 342.23 633.02 350.21 632.24 358.36 631.85 366.72 632.38 375.02 633.49 383.56 635.21 392.37 637.96 401.16 641.28 410.24 645.08 419.62 649.61 429.01 654.19 438.47 658.61 447.99 663.16 457.51 667.12 467.06 670.31 476.59 673.06 486.08 674.74 495.51 675.26 504.78 675 513.94 673.48 522.86 670.72 531.44 667.15 539.79 662.43 547.68 656.68 554.99 650.3 561.94 643.09 568.17 635.22 573.61 627 578.57 618.34 582.66 609.37 585.81 600.34 588.53 591.18 590.38 581.97 591.39 572.91 592.21 563.9 592.44 554.99 592.25 546.31 592.35 537.74 592.43 529.29 592.73 521.08 593.93 512.95 595.79 504.89 598.52 497.01 602.61 489.15 607.81 481.27 614.14 473.52 621.82 465.69 630.45 457.78 639.79 449.93 649.78 441.95 659.83 433.83 669.47 425.73 678.56 417.46 686.37 409.04 692.44 400.61 696.81 392.02 698.83 383.26 698.3 374.51 695.7 365.81 690.78 357.2 683.9 348.6 675.82 340.1 666.62 331.73 656.83 323.4 647.16 315.22 637.76 307.24 629 299.3 621.42 291.59 614.95 284.13 609.67 276.73 605.93 269.61 603.32 262.79 601.7 256.05 601.28 249.62 601.44 243.53 601.88 234.66 603.29 218.65 604.13 211.49 602.51 206.79 600.66 202.39 597.78 198.26 593.88 194.04 589.4 190.05 583.95 186.29 577.63 182.36 570.8 178.61 563.25 175.04 555.09 171.26 546.6 167.64 537.66 164.19 528.4 160.52 518.96 157.03 509.32 153.75 499.58 150.3 489.77 147.1 479.94 144.19 470.15 141.21 460.35 138.6 450.63 136.41 441.04 134.28 431.46 132.65 422.01 131.59 412.72 130.71 403.43 130.48 394.52 130.91 385.96 131.57 377.39 132.89 369.15 134.86 361.23 137.06 353.26 139.87 345.57 143.25 338.13 146.81 330.58 150.88 323.22 155.41 316.03 160.02 308.65 165.03 301.36 170.37 294.12 175.69 286.63 181.3 279.11 187.13 271.53 192.86 263.65 198.79 255.67 204.87 247.58 210.8 239.2 216.88 230.74 223.08 222.23 229.12 213.55 235.29 204.93 241.6 196.47 247.75 188.08 254.06 180.03 260.53 172.48 266.87 165.28 273.4 158.79 280.13 153.15 286.77 148.12 293.63 144.09 300.71 141.12 307.73 138.85 315 137.63 322.52 137.43 330 137.72 337.74 138.8 345.73 140.56 353.71 142.33 361.95 144.4 370.46 146.6 378.95 148.26 387.72 149.71 396.76 150.84" stroke-dasharray="2 4" transform="rotate(8.08, 400, 400)" opacity="0.96"></path><path d="M400.94 162.24C409.69 162.49 418.52 162.34 427.39 161.85 436.28 160.63 445.23 159.28 454.22 157.92 463.22 156.25 472.28 154.89 481.34 154 490.42 153.26 499.5 153.26 508.55 154.08 517.58 155.4 526.54 157.68 535.37 160.91 544.13 164.75 552.7 169.52 561 175.14 569.13 181.27 576.91 188.12 584.24 195.56 591.3 203.31 597.8 211.48 603.66 219.96 609.13 228.52 613.88 237.26 617.83 246.08 621.34 254.82 624.03 263.57 625.88 272.28 627.34 280.84 628.03 289.34 628 297.78 627.79 306.05 627.03 314.29 625.84 322.52 624.81 330.6 623.6 338.71 622.37 346.89 621.68 354.96 621.22 363.15 621.11 371.47 621.85 379.74 623.1 388.19 624.89 396.82 627.59 405.43 630.78 414.26 634.38 423.29 638.64 432.33 642.93 441.37 647.05 450.38 651.32 459.38 655.06 468.33 658.12 477.17 660.82 485.96 662.55 494.59 663.24 502.99 663.27 511.26 662.15 519.21 659.88 526.76 656.89 534.08 652.82 540.89 647.77 547.1 642.11 552.98 635.64 558.17 628.47 562.6 620.94 566.67 612.91 569.94 604.52 572.41 596 574.6 587.27 576.08 578.44 576.92 569.66 577.74 560.87 578.18 552.12 578.39 543.53 579.02 535.02 579.78 526.59 580.89 518.36 582.92 510.2 585.63 502.11 589.19 494.18 594 486.28 599.79 478.4 606.56 470.63 614.46 462.83 623.11 454.99 632.28 447.21 641.91 439.35 651.45 431.41 660.5 423.49 668.94 415.45 676.14 407.3 681.67 399.16 685.64 390.9 687.44 382.52 686.9 374.15 684.47 365.87 679.91 357.7 673.53 349.54 666.01 341.51 657.39 333.63 648.13 325.77 638.88 318.09 629.75 310.62 621.08 303.18 613.38 295.96 606.59 289.01 600.83 282.09 596.43 275.45 593.06 269.1 590.63 259.8 589.05 242.79 589.12 235.1 589.49 227.71 589.62 214.3 586.14 208.2 582.05 204.1 578.57 200.21 574.21 196.52 569.01 192.66 563.38 188.96 557 185.43 550 181.69 542.66 178.09 534.82 174.66 526.58 171.03 518.14 167.56 509.41 164.3 500.49 160.88 491.48 157.71 482.35 154.83 473.18 151.88 463.99 149.29 454.8 147.12 445.66 145 436.51 143.37 427.44 142.29 418.47 141.38 409.49 141.1 400.82 141.46 392.44 142.04 384.05 143.27 375.92 145.11 368.05 147.19 360.13 149.86 352.42 153.08 344.9 156.49 337.27 160.4 329.78 164.76 322.39 169.22 314.83 174.07 307.31 179.25 299.8 184.45 292.07 189.93 284.29 195.64 276.46 201.28 268.37 207.12 260.21 213.12 251.98 219 243.54 225.02 235.07 231.17 226.63 237.17 218.13 243.3 209.76 249.55 201.64 255.66 193.67 261.91 186.11 268.31 179.11 274.58 172.52 281.02 166.65 287.63 161.63 294.15 157.22 300.87 153.77 307.79 151.32 314.64 149.51 321.72 148.67 329.03 148.75 336.29 149.25 343.79 150.46 351.54 152.26 359.26 154.02 367.24 156.04 375.47 158.17 383.69 159.76 392.18 161.15 400.93 162.24" stroke-dasharray="7 10" transform="rotate(12.12, 400, 400)" opacity="0.76"></path><path d="M405.05 173.65C413.51 173.91 422.02 173.81 430.57 173.38 439.13 172.27 447.74 171.01 456.36 169.73 465 168.12 473.66 166.76 482.3 165.8 490.94 164.92 499.55 164.69 508.07 165.19 516.57 166.1 524.95 167.89 533.16 170.55 541.28 173.77 549.16 177.87 556.74 182.79 564.14 188.23 571.16 194.38 577.71 201.16 583.99 208.29 589.72 215.9 594.83 223.87 599.59 232.01 603.66 240.39 607 248.92 609.96 257.46 612.19 266.07 613.68 274.69 614.86 283.23 615.38 291.74 615.29 300.22 615.09 308.58 614.45 316.9 613.46 325.2 612.67 333.38 611.76 341.57 610.84 349.78 610.46 357.91 610.3 366.09 610.45 374.34 611.37 382.55 612.74 390.87 614.57 399.3 617.22 407.71 620.28 416.25 623.68 424.92 627.68 433.58 631.68 442.17 635.53 450.64 639.52 459.09 643.04 467.41 645.94 475.54 648.57 483.61 650.33 491.45 651.16 498.97 651.42 506.38 650.64 513.41 648.83 519.98 646.37 526.36 642.9 532.21 638.5 537.45 633.54 542.44 627.77 546.77 621.32 550.4 614.49 553.78 607.13 556.48 599.35 558.52 591.41 560.41 583.19 561.77 574.8 562.66 566.41 563.68 557.94 564.49 549.45 565.23 541.07 566.48 532.71 567.98 524.4 569.9 516.24 572.72 508.13 576.23 500.09 580.52 492.18 585.93 484.31 592.19 476.47 599.27 468.73 607.28 460.99 615.86 453.24 624.78 445.56 633.99 437.83 643 430.05 651.43 422.31 659.25 414.5 665.84 406.62 670.87 398.74 674.45 390.79 676.04 382.78 675.49 374.76 673.24 366.87 669.02 359.13 663.11 351.38 656.14 343.79 648.1 336.37 639.38 328.96 630.58 321.75 621.76 314.74 613.26 307.76 605.53 301.01 598.53 294.51 592.39 288.04 587.44 281.83 583.4 275.91 580.23 267.19 577.46 251.23 575.49 243.96 575.25 236.94 575.15 224.07 572.4 218.16 569.2 212.25 564.76 201.07 551.52 195.74 542.92 192.03 536.68 188.46 529.89 185.05 522.65 181.45 515.21 178.02 507.42 174.78 499.35 171.41 491.18 168.27 482.81 165.42 474.32 162.52 465.79 159.96 457.18 157.81 448.53 155.71 439.89 154.08 431.23 152.99 422.59 152.06 413.95 151.74 405.54 152.02 397.34 152.53 389.13 153.65 381.12 155.37 373.29 157.32 365.42 159.84 357.69 162.9 350.09 166.14 342.39 169.87 334.77 174.05 327.21 178.33 319.5 183.01 311.8 188.03 304.08 193.07 296.19 198.4 288.24 203.97 280.25 209.5 272.07 215.23 263.85 221.13 255.6 226.92 247.24 232.87 238.91 238.95 230.68 244.9 222.47 250.97 214.48 257.17 206.8 263.23 199.34 269.43 192.36 275.75 185.96 281.96 180.01 288.32 174.79 294.83 170.4 301.25 166.6 307.85 163.71 314.63 161.76 321.34 160.37 328.25 159.87 335.36 160.21 342.43 160.88 349.73 162.18 357.25 164 364.74 165.74 372.47 167.7 380.43 169.74 388.38 171.26 396.59 172.6 405.04 173.65" stroke-dasharray="4 7" transform="rotate(16.16, 400, 400)" opacity="0.80"></path><path d="M408.88 185.05C417.02 185.32 425.2 185.27 433.4 184.91 441.6 183.9 449.83 182.76 458.06 181.56 466.28 180.03 474.5 178.7 482.66 177.69 490.82 176.72 498.9 176.3 506.87 176.52 514.79 177.07 522.56 178.41 530.11 180.54 537.57 183.17 544.75 186.63 551.6 190.86 558.28 195.59 564.55 201.03 570.35 207.1 575.9 213.55 580.92 220.51 585.34 227.89 589.46 235.49 592.94 243.39 595.76 251.5 598.27 259.69 600.12 268.01 601.33 276.4 602.31 284.77 602.73 293.16 602.63 301.54 602.5 309.85 602 318.14 601.23 326.4 600.69 334.58 600.06 342.76 599.46 350.92 599.36 359.02 599.47 367.13 599.86 375.26 600.94 383.37 602.41 391.51 604.26 399.69 606.84 407.86 609.78 416.09 612.98 424.36 616.73 432.62 620.45 440.73 624.02 448.64 627.75 456.54 631.04 464.22 633.79 471.65 636.32 479.03 638.08 486.1 639.01 492.81 639.47 499.41 638.99 505.6 637.57 511.32 635.58 516.88 632.66 521.91 628.88 526.36 624.58 530.63 619.5 534.31 613.74 537.38 607.61 540.3 600.93 542.66 593.8 544.5 586.48 546.32 578.83 547.75 570.96 548.89 563.03 550.26 554.96 551.56 546.83 552.92 538.74 554.85 530.64 557.09 522.55 559.79 514.55 563.35 506.59 567.56 498.68 572.48 490.86 578.37 483.09 584.98 475.35 592.24 467.7 600.25 460.06 608.67 452.44 617.26 444.88 626.01 437.3 634.46 429.71 642.28 422.15 649.47 414.56 655.48 406.94 660.02 399.33 663.24 391.69 664.64 384.01 664.08 376.34 662 368.82 658.11 361.46 652.66 354.11 646.22 346.93 638.74 339.93 630.57 332.95 622.24 326.16 613.8 319.59 605.52 313.03 597.85 306.7 590.74 300.61 584.33 294.54 578.93 288.72 574.33 283.17 570.5 274.98 566.61 259.91 562.53 253.01 561.51 246.29 560.94 233.87 558.3 228.1 555.65 222.3 552.09 211.26 541.23 205.96 534 202.28 528.73 198.74 522.9 195.35 516.6 191.79 510.12 188.39 503.23 185.19 496.01 181.87 488.68 178.78 481.09 175.97 473.29 173.11 465.45 170.6 457.45 168.47 449.33 166.4 441.21 164.79 433 163.68 424.73 162.74 416.46 162.38 408.33 162.59 400.34 163.02 392.33 164.05 384.45 165.64 376.69 167.45 368.89 169.81 361.17 172.7 353.52 175.76 345.79 179.31 338.1 183.29 330.43 187.39 322.64 191.87 314.84 196.7 307.01 201.57 299.05 206.73 291.05 212.14 283.03 217.52 274.89 223.12 266.75 228.89 258.63 234.58 250.48 240.44 242.42 246.42 234.53 252.3 226.73 258.3 219.22 264.42 212.07 270.43 205.21 276.56 198.85 282.81 193.11 288.95 187.82 295.23 183.25 301.65 179.5 307.97 176.28 314.46 173.92 321.1 172.43 327.68 171.44 334.44 171.24 341.38 171.79 348.27 172.61 355.37 173.97 362.67 175.79 369.93 177.49 377.42 179.38 385.12 181.32 392.81 182.77 400.73 184.04 408.87 185.05" stroke-dasharray="4 3" transform="rotate(20.200000000000003, 400, 400)" opacity="0.66"></path><path d="M412.2 196.46C420.01 196.74 427.84 196.73 435.66 196.44 443.48 195.54 451.3 194.5 459.09 193.41 466.87 191.96 474.61 190.68 482.26 189.67 489.89 188.63 497.42 188.06 504.8 188.05 512.12 188.3 519.26 189.24 526.15 190.9 532.93 192.98 539.43 195.83 545.57 199.4 551.54 203.43 557.11 208.15 562.22 213.49 567.1 219.22 571.47 225.48 575.28 232.18 578.84 239.15 581.81 246.46 584.19 254.04 586.33 261.75 587.9 269.65 588.9 277.66 589.75 285.71 590.13 293.83 590.07 301.97 590.04 310.09 589.72 318.22 589.17 326.32 588.88 334.39 588.54 342.43 588.23 350.44 588.39 358.43 588.74 366.39 589.33 374.33 590.55 382.25 592.1 390.16 593.96 398.05 596.47 405.94 599.27 413.81 602.29 421.66 605.78 429.5 609.24 437.11 612.55 444.48 616 451.82 619.08 458.9 621.66 465.67 624.08 472.39 625.82 478.76 626.82 484.75 627.31 493.38 623.35 508.2 618.92 514.26 615.23 518.01 610.8 521.25 605.72 523.98 600.27 526.66 594.27 528.89 587.81 530.73 581.13 532.67 574.1 534.35 566.79 535.86 559.39 537.7 551.81 539.57 544.11 541.59 536.41 544.2 528.64 547.16 520.86 550.58 513.13 554.79 505.39 559.6 497.69 565.02 490.06 571.26 482.45 578.09 474.89 585.42 467.38 593.33 459.9 601.49 452.45 609.69 445.05 617.94 437.65 625.81 430.27 633.02 422.91 639.6 415.56 645.05 408.2 649.14 400.86 652.02 393.5 653.24 386.16 652.68 378.81 650.75 371.64 647.17 364.65 642.17 357.66 636.24 350.86 629.32 344.25 621.7 337.65 613.87 331.25 605.83 325.07 597.84 318.89 590.31 312.94 583.18 307.22 576.6 301.51 570.87 296.03 565.81 290.8 561.43 283.06 556.52 268.75 550.37 262.15 548.48 255.69 547.26 243.62 544.18 237.97 541.77 232.26 538.74 221.33 529.64 216.06 523.51 212.43 519.06 208.92 514.07 205.56 508.59 202.04 502.97 198.69 496.91 195.53 490.49 192.26 483.96 189.23 477.12 186.47 470.01 183.67 462.85 181.21 455.47 179.12 447.9 177.09 440.32 175.49 432.58 174.38 424.7 173.43 416.83 173.03 409.01 173.18 401.25 173.53 393.49 174.45 385.78 175.92 378.13 177.59 370.44 179.79 362.79 182.5 355.16 185.38 347.48 188.73 339.79 192.5 332.1 196.39 324.33 200.67 316.53 205.28 308.71 209.96 300.82 214.92 292.9 220.14 284.98 225.36 277.02 230.79 269.09 236.41 261.25 241.97 253.44 247.7 245.78 253.56 238.35 259.34 231.07 265.25 224.12 271.27 217.59 277.2 211.37 283.25 205.69 289.41 200.62 295.47 196 301.66 192.08 307.97 188.93 314.2 186.28 320.58 184.42 327.09 183.35 333.54 182.7 340.14 182.77 346.91 183.5 353.63 184.42 360.54 185.83 367.61 187.62 374.66 189.27 381.91 191.07 389.33 192.91 396.75 194.28 404.37 195.49 412.19 196.46" stroke-dasharray="9 4" transform="rotate(24.24, 400, 400)" opacity="0.67"></path><path d="M414.82 207.87C422.29 208.16 429.74 208.18 437.16 207.97 444.58 207.17 451.96 206.25 459.28 205.26 466.59 203.93 473.83 202.71 480.95 201.72 488.04 200.65 494.99 199.99 501.77 199.79 508.48 199.79 514.98 200.39 521.22 201.63 527.35 203.21 533.18 205.49 538.65 208.44 543.97 211.8 548.88 215.81 553.35 220.43 557.63 225.42 561.43 230.94 564.71 236.93 567.79 243.19 570.35 249.83 572.37 256.78 574.22 263.91 575.58 271.26 576.44 278.77 577.23 286.37 577.62 294.08 577.65 301.85 577.74 309.64 577.6 317.46 577.3 325.28 577.25 333.1 577.17 340.9 577.13 348.66 577.54 356.41 578.1 364.13 578.87 371.79 580.21 379.45 581.81 387.07 583.67 394.62 586.1 402.17 588.76 409.65 591.59 417.05 594.84 424.45 598.04 431.58 601.09 438.41 604.29 445.23 607.14 451.74 609.56 457.91 612.7 466.92 615.3 482.94 614.5 489.83 612.32 496.17 603.59 506.53 597.24 510.62 592.46 513.24 587.13 515.53 581.34 517.56 575.31 519.75 568.91 521.8 562.21 523.79 555.39 526.16 548.34 528.63 541.14 531.32 533.9 534.57 526.55 538.19 519.15 542.24 511.76 547.01 504.35 552.28 496.93 558.07 489.57 564.55 482.2 571.47 474.87 578.76 467.58 586.46 460.32 594.3 453.08 602.06 445.89 609.78 438.71 617.06 431.56 623.66 424.44 629.64 417.33 634.57 410.25 638.22 403.18 640.78 396.12 641.83 389.09 641.27 382.06 639.49 375.22 636.22 368.58 631.64 361.93 626.21 355.48 619.83 349.23 612.76 342.98 605.44 336.93 597.84 331.1 590.19 325.26 582.87 319.64 575.81 314.25 569.17 308.84 563.22 303.66 557.81 298.71 552.98 291.36 547.2 277.68 539.1 271.34 536.29 265.08 534.3 253.3 530.35 247.73 527.9 242.1 525.1 231.27 517.13 226.05 511.83 222.45 508.01 218.98 503.7 215.66 498.92 212.2 494.02 208.9 488.7 205.79 482.98 202.59 477.18 199.62 471.03 196.92 464.57 194.2 458.07 191.79 451.28 189.74 444.26 187.76 437.22 186.19 429.97 185.08 422.51 184.12 415.05 183.69 407.57 183.78 400.1 184.06 392.62 184.88 385.14 186.21 377.66 187.75 370.16 189.79 362.65 192.3 355.13 194.99 347.57 198.13 339.99 201.68 332.39 205.36 324.75 209.41 317.09 213.8 309.42 218.25 301.71 223 294.01 228.01 286.35 233.03 278.7 238.27 271.13 243.71 263.69 249.11 256.34 254.68 249.19 260.39 242.32 266.04 235.64 271.83 229.34 277.72 223.48 283.54 217.94 289.48 212.94 295.52 208.56 301.49 204.6 307.57 201.31 313.76 198.74 319.88 196.61 326.13 195.2 332.49 194.51 338.8 194.16 345.25 194.45 351.84 195.32 358.39 196.32 365.09 197.74 371.93 199.48 378.76 201.07 385.75 202.78 392.9 204.51 400.04 205.8 407.34 206.93 414.81 207.86" stroke-dasharray="8 7" transform="rotate(28.28, 400, 400)" opacity="0.99"></path><path d="M416.6 219.27C423.7 219.57 430.76 219.64 437.76 219.48 444.76 218.8 451.69 217.99 458.52 217.12 465.35 215.9 472.06 214.77 478.64 213.82 485.18 212.76 491.56 212.04 497.74 211.71 506.8 211.66 523.46 214.74 530.9 218 537.78 222.4 549.25 234.63 553.74 242.26 556.42 247.78 558.64 253.7 560.4 259.96 562.03 266.41 563.24 273.12 564.04 280.03 564.81 287.07 565.25 294.25 565.39 301.52 565.63 308.85 565.69 316.25 565.62 323.66 565.8 331.1 565.98 338.53 566.19 345.94 566.8 353.35 567.56 360.73 568.48 368.04 569.9 375.36 571.54 382.61 573.38 389.77 575.73 396.94 578.25 404.01 580.89 410.95 583.91 417.9 586.86 424.55 589.66 430.89 592.61 437.21 595.24 443.21 597.49 448.86 600.46 457.12 603.2 471.71 602.74 478 601.06 483.85 593.78 493.67 588.31 497.76 581.82 501.72 566.09 509.09 557.13 512.86 550.92 515.77 544.45 518.84 537.79 522.14 531.07 525.98 524.21 530.17 517.25 534.75 510.29 539.94 503.26 545.55 496.21 551.59 489.18 558.16 482.13 565.06 475.1 572.2 468.09 579.62 461.1 587.06 454.13 594.34 447.2 601.5 440.28 608.19 433.4 614.19 426.54 619.6 419.7 624.02 412.91 627.26 406.12 629.52 399.36 630.42 392.64 629.87 385.93 628.23 379.4 625.25 373.09 621.06 366.76 616.11 360.63 610.27 354.71 603.74 348.78 596.94 343.05 589.81 337.53 582.55 332 575.5 326.67 568.6 321.56 561.99 316.42 555.93 311.5 550.3 306.78 545.13 299.75 538.64 286.61 528.77 280.47 525.07 274.38 522.25 262.84 517.14 257.35 514.42 251.79 511.58 241.07 504.17 235.89 499.42 230.63 494.15 220.63 481.33 215.97 473.86 212.86 468.68 209.96 463.14 207.33 457.27 204.68 451.36 202.34 445.15 200.35 438.65 198.41 432.14 196.88 425.36 195.78 418.34 194.82 411.31 194.35 404.22 194.39 397.07 194.6 389.93 195.32 382.73 196.52 375.5 197.91 368.26 199.79 360.98 202.11 353.66 204.61 346.34 207.53 338.98 210.85 331.6 214.3 324.21 218.11 316.8 222.25 309.41 226.47 302.03 230.98 294.68 235.75 287.41 240.55 280.2 245.57 273.1 250.79 266.18 256 259.4 261.38 252.85 266.9 246.62 272.39 240.61 278.01 234.99 283.75 229.83 289.43 224.99 295.23 220.69 301.13 216.98 306.96 213.65 312.91 210.95 318.95 208.92 324.94 207.27 331.04 206.26 337.24 205.9 343.39 205.81 349.67 206.27 356.06 207.24 362.41 208.29 368.9 209.7 375.51 211.38 382.09 212.88 388.82 214.49 395.67 216.12 402.51 217.31 409.49 218.38 416.59 219.27" stroke-dasharray="6 6" transform="rotate(32.32, 400, 400)" opacity="0.46"></path><path d="M417.44 230.68C424.16 230.98 430.81 231.08 437.37 231 443.93 230.42 450.39 229.73 456.73 228.98 463.06 227.88 469.26 226.86 475.29 225.97 484.2 224.58 500.9 223.49 508.56 224.11 515.8 225.56 528.47 231.62 533.79 236.22 538.53 241.8 545.8 255.68 548.34 263.79 549.83 269.51 550.95 275.52 551.74 281.75 552.53 288.13 553.05 294.69 553.33 301.37 553.73 308.14 553.99 315 554.14 321.9 554.55 328.85 554.95 335.82 555.38 342.77 556.18 349.75 557.1 356.69 558.14 363.58 559.63 370.48 561.29 377.31 563.1 384.03 565.35 390.77 567.73 397.4 570.19 403.89 572.99 410.38 575.7 416.58 578.26 422.46 582.17 431.11 588.24 446.74 590.06 453.69 590.32 466.01 583.6 481.48 578.94 485.77 573.34 490.09 559.5 498.63 551.49 503.17 545.9 506.6 540.03 510.21 533.95 514.07 527.79 518.4 521.45 523.04 515 528.02 508.52 533.51 501.94 539.34 495.31 545.48 488.68 552.03 482.01 558.8 475.34 565.69 468.68 572.76 462.01 579.75 455.37 586.51 448.74 593.1 442.13 599.19 435.55 604.62 428.99 609.47 422.45 613.4 415.96 616.26 409.47 618.25 403.02 619.01 396.61 618.46 390.21 616.96 384 614.25 377.99 610.45 371.97 605.96 366.15 600.63 360.53 594.64 354.89 588.36 349.45 581.72 344.21 574.89 338.95 568.17 333.88 561.51 329.01 555.02 324.12 548.95 319.41 543.2 314.89 537.82 308.15 530.78 295.46 519.41 289.48 514.89 283.53 511.23 272.2 504.8 266.77 501.64 261.29 498.55 250.69 491.21 245.59 486.76 240.42 481.93 230.62 470.34 226.08 463.58 223.05 458.92 220.24 453.9 217.69 448.54 215.13 443.16 212.87 437.45 210.93 431.45 209.06 425.44 207.56 419.13 206.48 412.56 205.52 405.98 205.03 399.29 205.01 392.52 205.16 385.76 205.78 378.91 206.85 372.01 208.11 365.1 209.81 358.14 211.94 351.14 214.24 344.15 216.94 337.11 220.02 330.08 223.23 323.05 226.79 316.03 230.67 309.05 234.63 302.11 238.88 295.24 243.39 288.48 247.94 281.8 252.72 275.29 257.69 268.98 262.67 262.84 267.83 256.96 273.13 251.42 278.42 246.11 283.85 241.2 289.39 236.76 294.9 232.61 300.51 228.98 306.23 225.91 311.9 223.18 317.68 221.03 323.54 219.48 329.36 218.25 335.28 217.6 341.29 217.51 347.27 217.63 353.34 218.23 359.51 219.26 365.65 220.33 371.9 221.7 378.25 223.3 384.58 224.72 391.01 226.21 397.55 227.73 404.08 228.84 410.71 229.83 417.43 230.68" stroke-dasharray="10 4" transform="rotate(36.36, 400, 400)" opacity="0.58"></path><path d="M417.28 242.08C423.6 242.39 429.83 242.53 435.95 242.5 442.06 242.03 448.05 241.45 453.91 240.82 465.57 238.63 476.58 236.88 486.73 236.01 496.68 235.18 505.59 236.03 513.26 238.7 520.56 242.28 526.51 247.86 530.99 255.22 535.16 263.52 537.99 273.32 539.59 284.22 541.35 295.68 542.35 307.89 542.87 320.45 544.35 333.25 545.95 346.18 547.87 358.96 549.4 365.37 551.05 371.73 552.83 378 554.97 384.27 557.21 390.44 559.5 396.49 562.07 402.53 564.55 408.29 566.89 413.77 569.35 419.23 571.55 424.4 573.45 429.27 577.11 439 578.96 447.54 578.83 454.94 577.77 462.45 574.48 469.06 569.15 475.01 562.85 481.57 554.75 488.04 545.24 494.8 535.16 502.91 524.04 511.93 512.25 521.99 500.29 533.65 487.91 546.23 475.38 559.19 462.87 572.47 450.27 584.77 437.78 594.92 431.55 599.25 425.34 602.73 419.16 605.23 413 606.96 406.86 607.59 400.78 607.06 394.69 605.69 388.79 603.24 383.08 599.81 377.36 595.75 371.83 590.92 366.48 585.46 355.75 573.76 345.73 560.99 336.45 548.21 327.05 536.63 318.3 526.09 310.23 516.8 301.91 509.4 294.13 502.99 286.9 497.2 279.29 492.61 272.11 487.88 265.38 482.6 258.21 477.68 251.46 471.71 245.27 464.53 238.76 457.31 232.92 448.77 228.01 438.94 224.45 431.38 218.96 414.72 217.17 405.67 216.23 399.55 215.72 393.29 215.65 386.94 215.73 380.59 216.26 374.16 217.21 367.65 219.6 354.67 223.66 341.46 229.2 328.25 235.24 315.19 242.58 302.27 250.95 289.85 259.56 277.88 269.02 266.74 279.11 256.87 289.21 247.91 299.84 240.63 310.85 235.38 321.76 231.28 333.06 229.26 344.64 229.33 356.14 229.99 367.99 232.1 380.11 235.25 386.16 236.56 392.29 237.94 398.49 239.34 404.68 240.36 410.95 241.28 417.27 242.08" stroke-dasharray="6 10" transform="rotate(40.400000000000006, 400, 400)" opacity="0.55"></path><path d="M416.14 253.49C427.96 253.66 439.32 253.34 450.08 252.66 460.78 250.75 470.78 249.19 479.91 248.34 488.86 247.38 496.81 247.81 503.6 249.81 510.12 252.47 515.41 256.92 519.43 263 523.27 269.89 525.98 278.22 527.66 287.66 529.58 297.66 530.9 308.47 531.82 319.74 533.63 331.28 535.53 343.05 537.64 354.76 541.07 366.56 544.85 378.18 548.8 389.39 553.73 400.6 558.08 410.82 561.49 420.01 564.87 429.21 566.67 437.44 566.73 444.78 566.06 452.31 563.43 459.22 558.96 465.72 553.66 472.87 546.69 480.12 538.36 487.73 529.48 496.53 519.55 506.13 508.89 516.55 498.01 528.18 486.63 540.39 475.02 552.64 463.37 564.92 451.59 576.07 439.83 585.12 428.11 592.23 416.42 595.95 404.89 595.65 393.37 592.47 382.52 585.69 372.37 576.19 362.17 565.51 352.62 553.64 343.73 541.51 334.71 530.19 326.28 519.54 318.44 509.86 310.36 501.74 302.76 494.48 295.66 487.86 288.2 482.38 281.14 476.95 274.52 471.25 267.51 466.01 260.93 460.01 254.91 453.08 248.62 446.21 243.01 438.22 238.28 429.1 233.6 419.94 230.04 409.65 227.87 398.29 226.13 386.93 226.07 375.09 227.59 362.99 229.69 350.95 233.36 338.73 238.42 326.59 243.94 314.64 250.71 302.95 258.48 291.85 266.51 281.23 275.38 271.52 284.89 263.09 294.45 255.51 304.55 249.52 315.03 245.4 325.47 242.22 336.27 240.88 347.33 241.34 358.33 242.2 369.63 244.26 381.12 247.21 392.6 249.37 404.3 251.57 416.13 253.49" stroke-dasharray="8 8" transform="rotate(44.44, 400, 400)" opacity="0.86"></path><path d="M414.08 264.89C425.06 265.12 435.53 264.94 445.35 264.47 455.13 262.86 464.18 261.52 472.38 260.75 480.43 259.74 487.54 259.89 493.59 261.36 499.45 263.28 504.23 266.75 507.9 271.69 511.51 277.28 514.17 284.23 515.98 292.28 518.09 300.83 519.7 310.22 520.98 320.17 523.07 330.38 525.21 340.92 527.47 351.53 530.85 362.22 534.45 372.86 538.1 383.22 542.6 393.59 546.51 403.16 549.57 411.9 552.66 420.68 554.37 428.73 554.57 436.14 554.21 443.77 552.13 451.03 548.41 458.09 544 465.76 538.06 473.64 530.83 481.91 523.11 491.17 514.34 501.08 504.81 511.58 495.04 522.94 484.72 534.58 474.07 545.99 463.37 557.22 452.45 567.22 441.49 575.2 430.55 581.42 419.58 584.61 408.73 584.25 397.88 581.4 387.62 575.35 377.99 566.82 368.31 557.15 359.2 546.24 350.68 534.86 342.04 523.98 333.9 513.46 326.29 503.62 318.45 495.01 311.04 487.11 304.08 479.81 296.81 473.54 289.9 467.44 283.42 461.25 276.62 455.58 270.25 449.4 264.42 442.54 258.39 435.82 253.02 428.21 248.51 419.65 244.06 411.09 240.67 401.55 238.57 391.06 236.86 380.57 236.7 369.67 238 358.59 239.83 347.57 243.1 336.46 247.67 325.52 252.68 314.8 258.86 304.43 266 294.73 273.41 285.5 281.65 277.21 290.51 270.18 299.48 263.9 308.97 259.09 318.85 255.96 328.73 253.57 338.96 252.78 349.41 253.53 359.84 254.49 370.52 256.47 381.33 259.19 392.13 261.13 403.09 263.12 414.08 264.89" stroke-dasharray="4 2" transform="rotate(48.48, 400, 400)" opacity="0.41"></path><path d="M411.22 276.3C421.35 276.57 430.94 276.53 439.87 276.26 448.76 274.95 456.94 273.86 464.3 273.22 474.75 272.25 490.87 275.99 496.5 281.3 499.96 285.75 502.62 291.45 504.59 298.2 506.88 305.36 508.77 313.39 510.36 322.04 512.67 330.92 514.99 340.23 517.35 349.74 520.64 359.31 524.04 368.97 527.4 378.52 531.48 388.08 534.98 397.06 537.7 405.44 540.49 413.86 542.08 421.8 542.36 429.31 542.23 437.05 540.59 444.63 537.52 452.15 533.89 460.22 528.87 468.55 522.67 477.24 516.03 486.7 508.37 496.65 499.95 506.96 491.29 517.83 482.03 528.74 472.38 539.2 462.66 549.33 452.66 558.2 442.54 565.16 432.43 570.56 422.23 573.26 412.08 572.84 401.92 570.31 392.27 564.95 383.16 557.35 374 548.69 365.33 538.76 357.18 528.22 348.91 517.93 341.08 507.73 333.7 497.97 326.13 489.13 318.93 480.82 312.14 473.04 305.09 466.12 298.38 459.44 292.09 452.8 285.54 446.67 279.4 440.24 273.81 433.36 268.08 426.66 262.98 419.3 258.7 411.2 254.5 403.13 251.29 394.26 249.27 384.61 247.6 374.97 247.35 365.04 248.45 355.02 250.01 345.08 252.9 335.15 256.98 325.48 261.47 316.02 267.05 307.01 273.54 298.71 280.31 290.85 287.87 283.92 296.04 278.2 304.35 273.09 313.18 269.32 322.38 267.04 331.62 265.3 341.19 264.93 350.97 265.86 360.76 266.86 370.75 268.7 380.82 271.17 390.91 272.89 401.08 274.66 411.22 276.3" stroke-dasharray="3 7" transform="rotate(52.52, 400, 400)" opacity="0.13"></path><path d="M407.72 287.7C417 288.01 425.73 288.09 433.82 288.02 441.88 287 449.26 286.17 455.88 285.7 465.31 284.81 480.03 287.54 485.35 291.73 488.7 295.23 491.41 299.85 493.54 305.44 495.99 311.36 498.1 318.12 499.95 325.55 502.43 333.16 504.86 341.28 507.26 349.72 510.44 358.22 513.64 366.93 516.7 375.71 520.37 384.49 523.48 392.92 525.88 400.96 528.37 409.06 529.82 416.88 530.14 424.46 530.16 432.27 528.88 440.05 526.35 447.89 523.39 456.17 519.19 464.72 513.9 473.55 508.25 482.95 501.65 492.68 494.28 502.56 486.69 512.75 478.49 522.78 469.84 532.23 461.12 541.24 452.06 549.01 442.82 555 433.56 559.63 424.16 561.89 414.73 561.44 405.3 559.21 396.27 554.49 387.69 547.78 379.08 540.1 370.87 531.17 363.09 521.54 355.22 511.97 347.71 502.28 340.6 492.81 333.33 483.99 326.38 475.52 319.81 467.48 313.02 460.13 306.57 453.01 300.5 446.03 294.25 439.5 288.4 432.83 283.09 425.9 277.68 419.17 272.87 411.98 268.85 404.28 264.91 396.61 261.89 388.35 259.96 379.51 258.35 370.68 258.03 361.71 258.93 352.78 260.23 343.91 262.75 335.18 266.35 326.79 270.33 318.59 275.31 310.9 281.15 303.96 287.25 297.37 294.1 291.7 301.55 287.15 309.14 283.07 317.25 280.18 325.71 278.59 334.25 277.36 343.1 277.3 352.14 278.31 361.21 279.28 370.46 280.95 379.76 283.14 389.08 284.64 398.44 286.21 407.72 287.7" stroke-dasharray="9 6" transform="rotate(56.56, 400, 400)" opacity="0.35"></path><path d="M403.78 299.11C412.21 299.44 420.11 299.64 427.41 299.74 434.69 299 441.34 298.43 447.31 298.17 455.86 297.47 469.42 299.58 474.52 302.92 479.18 307.52 486.56 321.64 489.75 330.79 492.33 337.24 494.82 344.26 497.22 351.7 500.26 359.17 503.23 366.98 506.01 375.02 509.28 383.07 512.02 390.96 514.11 398.65 516.3 406.4 517.59 414.05 517.9 421.62 518.02 429.38 517.02 437.21 514.94 445.15 512.54 453.42 509.05 461.93 504.58 470.64 499.82 479.73 494.17 488.99 487.79 498.24 481.23 507.6 474.04 516.65 466.38 525.03 458.65 532.93 450.54 539.64 442.18 544.73 433.81 548.65 425.23 550.51 416.55 550.03 407.87 548.08 399.49 543.97 391.47 538.11 383.43 531.37 375.7 523.45 368.33 514.78 360.89 506.03 353.75 497 346.95 488.01 340.02 479.45 333.38 471.07 327.07 463 320.61 455.46 314.46 448.11 308.68 440.93 302.77 434.13 297.26 427.3 292.25 420.37 287.19 413.61 282.71 406.59 278.96 399.25 275.3 391.96 272.48 384.27 270.66 376.21 269.11 368.16 268.73 360.13 269.45 352.25 270.51 344.43 272.67 336.86 275.82 329.7 279.28 322.7 283.67 316.26 288.86 310.55 294.28 305.13 300.41 300.57 307.1 297.01 313.95 293.8 321.28 291.64 328.97 290.57 336.74 289.72 344.81 289.84 353.07 290.85 361.37 291.73 369.82 293.2 378.31 295.11 386.82 296.39 395.35 297.76 403.78 299.11" stroke-dasharray="2 1" transform="rotate(60.599999999999994, 400, 400)" opacity="0.37"></path><path d="M399.62 310.51C407.21 310.87 414.32 311.16 420.88 311.41 430.42 310.79 446.58 310.14 453.15 310.79 459.18 311.97 468.72 318.39 472.5 323.7 475.17 327.64 477.58 332.34 479.76 337.7 482.37 343.14 484.86 349.18 487.22 355.69 490.08 362.24 492.81 369.21 495.31 376.54 498.21 383.87 500.6 391.21 502.39 398.51 504.29 405.86 505.41 413.25 505.69 420.66 505.85 428.22 505.07 435.9 503.35 443.7 501.41 451.74 498.51 459.97 494.76 468.29 490.78 476.84 486 485.42 480.53 493.86 474.91 502.27 468.69 510.28 461.99 517.57 455.21 524.38 448.03 530.09 440.56 534.34 433.07 537.61 425.33 539.11 417.42 538.62 409.51 536.93 401.82 533.4 394.39 528.32 386.95 522.5 379.75 515.56 372.83 507.88 365.87 500.03 359.14 491.8 352.71 483.46 346.18 475.35 339.9 467.31 333.93 459.45 327.85 451.95 322.05 444.61 316.62 437.42 311.1 430.54 305.96 423.68 301.31 416.83 296.63 410.14 292.5 403.32 289.04 396.36 285.67 389.44 283.07 382.31 281.36 375 279.89 367.69 279.46 360.55 280.01 353.68 280.85 346.85 282.67 340.35 285.37 334.33 288.35 328.43 292.16 323.1 296.69 318.48 301.44 314.07 306.84 310.44 312.77 307.71 318.84 305.2 325.38 303.59 332.26 302.89 339.22 302.3 346.48 302.5 353.91 303.44 361.39 304.2 369.01 305.44 376.67 307.07 384.35 308.13 392.04 309.3 399.62 310.51" stroke-dasharray="4 9" transform="rotate(64.64, 400, 400)" opacity="0.13"></path><path d="M395.49 321.92C402.25 322.28 408.59 322.66 414.46 323.04 423.01 322.78 437.65 322.78 443.72 323.53 454.04 327.29 466.48 339.6 469.95 346.11 472.54 350.7 474.98 355.88 477.25 361.57 479.9 367.28 482.39 373.47 484.62 380.1 487.16 386.73 489.21 393.5 490.72 400.34 492.35 407.21 493.29 414.21 493.52 421.29 493.68 428.48 493.05 435.82 491.62 443.25 490.04 450.83 487.65 458.53 484.52 466.24 481.22 474.05 477.2 481.8 472.56 489.29 467.8 496.68 462.47 503.61 456.67 509.83 450.81 515.59 444.53 520.35 437.93 523.84 431.32 526.52 424.42 527.71 417.3 527.22 410.19 525.77 403.21 522.76 396.41 518.44 389.61 513.47 382.98 507.5 376.58 500.81 370.13 493.9 363.89 486.56 357.88 479 351.82 471.55 345.97 464.04 340.4 456.61 334.75 449.41 329.38 442.29 324.35 435.31 319.26 428.55 314.53 421.84 310.26 415.21 305.99 408.7 302.23 402.17 299.08 395.63 296.02 389.13 293.64 382.56 292.06 375.98 290.67 369.39 290.21 363.09 290.61 357.14 292 348.46 299.17 333.57 304.7 327.68 311.13 322.68 326.79 316.56 335.7 315.49 341.83 315.05 348.25 315.25 354.83 316.06 361.46 316.66 368.24 317.66 375.05 319.01 381.88 319.86 388.73 320.85 395.49 321.92" stroke-dasharray="7 5" transform="rotate(68.68, 400, 400)" opacity="0.49"></path><path d="M391.61 333.33C403.52 333.47 414.02 334.02 422.81 335.11 431.64 334.84 438.96 336.18 444.72 339.44 450.94 342.49 456.14 347.97 460.33 355.72 465.61 363.54 470.29 373.53 473.92 385.41 478.52 397.3 481.08 410.05 481.4 423.15 481.63 436.5 479.06 450.45 473.94 464.24 468.37 478.06 460.36 491.08 450.5 501.77 440.44 510.85 428.82 516 416.2 515.81 403.58 512.65 391.21 504.65 379.56 493.53 367.82 481.5 356.64 467.96 346.49 454.25 336.16 441.04 326.83 427.89 319.13 415.29 311.5 403.03 305.78 390.83 302.75 379.06 300.37 367.29 301.22 357 304.82 348.64 309.15 340.45 316.03 334.5 324.74 331.16 333.9 328 344.58 327.23 356.01 328.66 367.59 329.23 379.7 330.9 391.61 333.33" stroke-dasharray="1 1" transform="rotate(72.72, 400, 400)" opacity="0.55"></path><path d="M388.21 344.73C398.55 344.99 407.77 345.79 415.64 347.16 423.57 347.37 430.34 348.91 435.84 351.98 441.74 354.73 446.78 359.48 450.88 366.17 455.8 372.84 460.05 381.49 463.22 392 467.12 402.5 469.19 413.94 469.36 425.75 469.53 437.68 467.39 450.03 463.11 462.02 458.55 473.83 451.9 484.7 443.58 493.37 435.11 500.7 425.16 504.74 414.18 504.41 403.19 501.83 392.25 495.26 381.84 486.01 371.38 475.88 361.36 464.21 352.24 452.13 343.05 440.23 334.74 428.23 327.92 416.72 321.2 405.42 316.15 394.36 313.45 383.98 311.26 373.61 311.82 364.83 314.73 357.92 318.21 351.08 323.88 346.23 331.18 343.58 338.83 340.91 347.85 340.16 357.59 341.21 367.47 341.45 377.88 342.69 388.21 344.73" stroke-dasharray="3 5" transform="rotate(76.76, 400, 400)" opacity="0.53"></path><path d="M385.48 356.14C394.28 356.48 402.27 357.45 409.23 359.01 416.24 359.65 422.39 361.39 427.53 364.35 432.98 366.96 437.72 371.17 441.6 376.99 446.05 382.73 449.82 390.18 452.52 399.29 455.75 408.39 457.39 418.35 457.41 428.59 457.49 438.86 455.68 449.36 452.13 459.35 448.43 469.08 442.97 477.83 436.06 484.62 429.05 490.36 420.7 493.42 411.34 493 401.99 490.96 392.55 485.7 383.49 478.21 374.42 469.96 365.68 460.25 357.71 449.99 349.73 439.72 342.53 429.21 336.63 419.07 330.86 409.04 326.51 399.29 324.15 390.31 322.17 381.33 322.5 373.9 324.79 368.18 327.48 362.45 332.04 358.43 337.98 356.21 344.19 353.85 351.61 353.03 359.72 353.67 367.93 353.61 376.68 354.46 385.48 356.14" stroke-dasharray="3 4" transform="rotate(80.80000000000001, 400, 400)" opacity="0.46"></path><path d="M383.58 367.54C390.88 367.93 397.63 368.99 403.64 370.65 412.41 372.56 426.8 380.77 432.45 387.69 436.35 392.64 439.58 398.97 441.82 406.64 444.43 414.31 445.66 422.63 445.56 431.11 445.54 439.57 444.02 448.08 441.1 456.02 438.11 463.68 433.71 470.42 428.09 475.51 422.42 479.83 415.6 482.05 407.87 481.6 400.13 480.03 392.25 475.96 384.63 470.11 377.02 463.66 369.66 455.91 362.95 447.58 356.25 439.14 350.23 430.36 345.3 421.82 340.48 413.32 336.85 405.05 334.85 397.49 333.19 386.82 338.76 372.5 345.21 368.84 350.08 366.69 355.98 365.76 362.53 366.01 369.14 365.7 376.28 366.21 383.58 367.54" stroke-dasharray="2 2" transform="rotate(84.84, 400, 400)" opacity="0.67"></path><path d="M382.61 378.95C394.26 379.1 404.69 382.2 412.58 387.76 421.04 392.38 427.81 401.01 431.13 413.41 435.33 425.8 434.79 439.8 430.12 451.84 425.36 463 416.2 470.37 403.94 470.19 391.67 467.21 378.83 457.31 368.02 444.67 357.36 431.52 348.96 417.12 345.55 404.88 342.85 392.64 345.93 384.66 352.88 381.24 360.3 377.13 370.95 376.34 382.61 378.95" stroke-dasharray="3 7" transform="rotate(88.88, 400, 400)" opacity="0.25"></path><path d="M382.63 390.35C391.37 390.71 399.52 393.63 405.89 398.43 412.57 402.63 417.91 409.63 420.43 419 423.44 428.37 422.85 438.42 419.26 446.67 415.68 454.35 408.9 459.18 399.79 458.79 390.68 456.83 381.09 450.01 373.02 441.07 365.07 431.71 358.82 421.12 356.24 411.85 355.1 399.42 370.04 389.12 382.63 390.35" stroke-dasharray="9 8" transform="rotate(92.92, 400, 400)" opacity="0.56"></path><path d="M383.64 401.76C395.32 401.92 406.57 410.35 409.73 422.92 413.74 435.49 407.68 447.55 395.65 447.38 383.62 444.49 370.55 430.25 366.94 417.78 364.09 405.29 371.95 399.05 383.64 401.76" stroke-dasharray="2 2" transform="rotate(96.96, 400, 400)" opacity="0.85"></path></g></svg>