<svg xmlns="http://www.w3.org/2000/svg" version="1.1" xmlns:xlink="http://www.w3.org/1999/xlink" xmlns:svgjs="http://svgjs.dev/svgjs" viewBox="0 0 600 600"><path d="M57.722511291503906,487.69635009765625C4.319367726643883,420.4188588460286,-3.795813242594406,184.68586858113608,70.28795623779297,123.29843139648438C144.37172571818036,61.91099421183268,425.2617785135905,82.85340118408203,502.2251281738281,119.3717269897461C579.1884778340658,155.89005279541016,550.6544392903646,274.47644424438477,532.0680541992188,342.40838623046875C513.4816691080729,410.34032821655273,469.76440811157227,502.74871826171875,390.7068176269531,526.96337890625C311.649227142334,551.1780395507812,111.12565485636392,554.9738413492838,57.722511291503906,487.69635009765625C4.319367726643883,420.4188588460286,-3.795813242594406,184.68586858113608,70.28795623779297,123.29843139648438" fill="url(&quot;#SvgjsLinearGradient1004&quot;)" stroke-width="0" stroke="hsl(340, 45%, 30%)" fill-opacity="1" transform="matrix(1.047375,0,0,1.047375,1.9367220711707773,-28.523497919082672)"></path><defs><pattern id="ssshape-pattern3" width="90" height="90" viewBox="0 0 40 40" patternUnits="userSpaceOnUse">
  <rect width="100%" height="100%" fill="none"></rect>
  <path d="M11 20L20 0L20 40zM31 20L40 0L40 40zM0-20L9 0L0 20zM0 20L9 40L0 60zM20-20L29 0L20 20zM20 20L29 40L20 60z" fill="hsl(340, 45%, 25%)"></path>
</pattern><linearGradient id="SvgjsLinearGradient1004" gradientTransform="rotate(139, 0.5, 0.5)"><stop stop-color="hsl(335, 77%, 60%)" offset="0"></stop><stop stop-color="hsl(335, 74%, 63%)" offset="1"></stop></linearGradient></defs></svg>